<svg width="93" height="72" viewBox="0 0 93 72" fill="none" xmlns="http://www.w3.org/2000/svg">
<path d="M0 42.618C0 42.2393 0.214002 41.893 0.552786 41.7236L16.5528 33.7236C17.2177 33.3912 18 33.8747 18 34.618V71C18 71.5523 17.5523 72 17 72H1C0.447716 72 0 71.5523 0 71V42.618Z" fill="white"/>
<path d="M93 42.618C93 42.2393 92.786 41.893 92.4472 41.7236L76.4472 33.7236C75.7823 33.3912 75 33.8747 75 34.618V71C75 71.5523 75.4477 72 76 72H92C92.5523 72 93 71.5523 93 71V42.618Z" fill="white"/>
<path fill-rule="evenodd" clip-rule="evenodd" d="M45 1C45 0.447715 45.4477 0 46 0H47C47.5523 0 48 0.447715 48 1V2.99999H50C50.5523 2.99999 51 3.44771 51 3.99999V4.99999C51 5.55228 50.5523 5.99999 50 5.99999H48V11.5L68.5547 25.2031C68.8329 25.3886 69 25.7008 69 26.0352V71C69 71.5523 68.5523 72 68 72L51 72V55C51 54.4477 50.5523 54 50 54H43C42.4477 54 42 54.4477 42 55V72L25 72C24.4477 72 24 71.5523 24 71V26.0352C24 25.7008 24.1671 25.3886 24.4453 25.2031L45 11.5V5.99999H43C42.4477 5.99999 42 5.55228 42 4.99999V3.99999C42 3.44771 42.4477 2.99999 43 2.99999H45V1ZM51 40.5C51 42.9853 48.9853 45 46.5 45C44.0147 45 42 42.9853 42 40.5C42 38.0147 44.0147 36 46.5 36C48.9853 36 51 38.0147 51 40.5Z" fill="white"/>
</svg>
